<?xml version="1.0" encoding="UTF-8"?>
<svg id="_レイヤー_2" data-name="レイヤー 2" xmlns="http://www.w3.org/2000/svg" xmlns:xlink="http://www.w3.org/1999/xlink" viewBox="0 0 425.49 431.38">
  <defs>
    <style>
      .cls-1, .cls-2 {
        fill: #6c6c6c;
      }

      .cls-2 {
        stroke: #6c6c6c;
        stroke-miterlimit: 10;
      }
    </style>
    <symbol id="_新規シンボル" data-name="新規シンボル" viewBox="0 0 183.67 101.81">
      <g id="PO">
        <g>
          <path class="cls-1" d="M133.67,2.81c27.02,0,49,21.98,49,49s-21.98,49-49,49-49-21.98-49-49S106.65,2.81,133.67,2.81M133.67,1.81c-27.61,0-50,22.39-50,50s22.39,50,50,50,50-22.39,50-50S161.29,1.81,133.67,1.81h0Z"/>
          <g>
            <path class="cls-1" d="M120.78,99.6c-21.62-5.8-36.61-25.26-36.61-47.79S99.15,9.82,120.78,4.02c-10.15,13.96-15.51,30.45-15.51,47.79s5.36,33.83,15.51,47.79Z"/>
            <path class="cls-1" d="M119.54,4.9c-9.67,13.79-14.77,29.95-14.77,46.92s5.1,33.12,14.77,46.92c-9.45-2.85-17.95-8.59-24.16-16.35-7-8.76-10.71-19.33-10.71-30.56s3.7-21.81,10.71-30.56c6.21-7.77,14.71-13.5,24.16-16.35M122.01,3.19c-21.99,5.25-38.34,25.02-38.34,48.62s16.35,43.36,38.34,48.62c-10.19-13.54-16.24-30.37-16.24-48.62s6.05-35.08,16.24-48.62h0Z"/>
          </g>
        </g>
        <g>
          <path class="cls-2" d="M38.66.81c6.29,8.36,10.03,18.76,10.03,30.03s-3.73,21.67-10.03,30.03c13.56-3.27,23.64-15.47,23.64-30.03S52.22,4.08,38.66.81Z"/>
          <path class="cls-2" d="M.5,30.85v69.97h23.64V.81C10.58,4.08.5,16.28.5,30.85Z"/>
        </g>
      </g>
    </symbol>
    <symbol id="_新規シンボル_4" data-name="新規シンボル 4" viewBox="0 0 424.66 102.16">
      <g id="RTFO">
        <g>
          <path class="cls-1" d="M374.66,3.11c27.02,0,49,21.98,49,49s-21.98,49-49,49-49-21.98-49-49S347.64,3.11,374.66,3.11M374.66,2.11c-27.61,0-50,22.39-50,50s22.39,50,50,50,50-22.39,50-50S402.27,2.11,374.66,2.11h0Z"/>
          <g>
            <path class="cls-1" d="M361.76,99.9c-21.62-5.8-36.61-25.26-36.61-47.79s14.98-41.99,36.61-47.79c-10.15,13.96-15.51,30.45-15.51,47.79s5.36,33.83,15.51,47.79Z"/>
            <path class="cls-1" d="M360.52,5.19c-9.67,13.79-14.77,29.95-14.77,46.92s5.1,33.12,14.77,46.92c-9.45-2.85-17.95-8.59-24.16-16.35-7-8.76-10.71-19.33-10.71-30.56s3.7-21.81,10.71-30.56c6.21-7.77,14.71-13.5,24.16-16.35M363,3.49c-21.99,5.25-38.34,25.02-38.34,48.62s16.35,43.36,38.34,48.62c-10.19-13.54-16.24-30.37-16.24-48.62s6.05-35.08,16.24-48.62h0Z"/>
          </g>
        </g>
        <g>
          <line class="cls-2" x1="255.11" y1="1.11" x2="316.91" y2="1.11"/>
          <line class="cls-2" x1="255.11" y1="39.31" x2="307.59" y2="39.31"/>
          <g>
            <rect class="cls-1" x="255.61" y="1.61" width="22.64" height="99"/>
            <path class="cls-1" d="M277.75,2.11v98h-21.64V2.11h21.64M278.75,1.11h-23.64v100h23.64V1.11h0Z"/>
          </g>
        </g>
        <g>
          <line class="cls-2" x1="171.85" y1="1.25" x2="233.65" y2="1.25"/>
          <g>
            <rect class="cls-1" x="191.43" y="1.75" width="22.64" height="99"/>
            <path class="cls-1" d="M213.57,2.25v98h-21.64V2.25h21.64M214.57,1.25h-23.64v100h23.64V1.25h0Z"/>
          </g>
        </g>
        <g>
          <g>
            <path class="cls-1" d="M121.51,59.86c6.08-8.56,9.29-18.62,9.29-29.19s-3.21-20.63-9.29-29.19c12.96,3.75,21.9,15.56,21.9,29.19s-8.94,25.44-21.9,29.19Z"/>
            <path class="cls-1" d="M122.75,2.39c12,4.1,20.16,15.36,20.16,28.27s-8.16,24.17-20.16,28.27c5.6-8.38,8.55-18.1,8.55-28.27s-2.95-19.9-8.55-28.27M120.28.63c6.29,8.36,10.03,18.76,10.03,30.03s-3.73,21.67-10.03,30.03c13.56-3.27,23.64-15.47,23.64-30.03S133.84,3.9,120.28.63h0Z"/>
          </g>
          <g>
            <path class="cls-1" d="M149.88,99.83c-5.3,0-10.54-1.41-15.16-4.08-11.8-6.81-17.56-20.46-14.33-33.56,4.37,9.55,11.48,17.36,20.63,22.64,7.67,4.43,16.39,6.77,25.2,6.77,1.57,0,3.15-.07,4.72-.22-5.62,5.39-13.22,8.45-21.06,8.45h0Z"/>
            <path class="cls-1" d="M120.56,63.73c4.46,9.04,11.4,16.45,20.21,21.54,7.75,4.47,16.55,6.84,25.45,6.84,1.1,0,2.2-.04,3.31-.11-5.41,4.69-12.42,7.34-19.65,7.34-5.21,0-10.37-1.39-14.91-4.01-11.19-6.46-16.85-19.15-14.4-31.6M120.28,60.7c-3.95,13.38,1.58,28.21,14.19,35.49,4.86,2.81,10.17,4.14,15.41,4.14,8.35,0,16.51-3.39,22.42-9.6-2.01.25-4.04.37-6.07.37-8.48,0-17.07-2.16-24.95-6.7-9.76-5.64-16.9-14.07-21-23.7h0Z"/>
          </g>
          <path class="cls-2" d="M82.12,31.67h0v69.97l23.64-1V.63c-13.56,3.27-23.64,16.47-23.64,31.03ZM98.61,30.97c0-.09-.01-.17-.02-.26.15.08.3.16.45.24l-.43.02Z"/>
        </g>
      </g>
    </symbol>
  </defs>
  <g id="_レイヤー_1-2" data-name="レイヤー 1">
    <g id="LIO">
      <g>
        <line class="cls-2" x1="190.93" y1="430.38" x2="252.73" y2="430.38"/>
        <g>
          <rect class="cls-1" x="191.43" y="330.88" width="22.64" height="99"/>
          <path class="cls-1" d="M213.57,331.38v98h-21.64v-98h21.64M214.57,330.38h-23.64v100h23.64v-100h0Z"/>
        </g>
      </g>
      <g>
        <line class="cls-2" x1="266.68" y1="430.38" x2="290.32" y2="430.38"/>
        <g>
          <rect class="cls-1" x="267.18" y="330.88" width="22.64" height="99"/>
          <path class="cls-1" d="M289.32,331.38v98h-21.64v-98h21.64M290.32,330.38h-23.64v100h23.64v-100h0Z"/>
        </g>
      </g>
      <g>
        <path class="cls-1" d="M374.66,332.38c27.02,0,49,21.98,49,49s-21.98,49-49,49-49-21.98-49-49,21.98-49,49-49M374.66,331.38c-27.61,0-50,22.39-50,50s22.39,50,50,50,50-22.39,50-50-22.39-50-50-50h0Z"/>
        <g>
          <path class="cls-1" d="M361.76,429.17c-21.62-5.8-36.61-25.26-36.61-47.79s14.98-41.99,36.61-47.79c-10.15,13.96-15.51,30.45-15.51,47.79s5.36,33.83,15.51,47.79Z"/>
          <path class="cls-1" d="M360.52,334.47c-9.67,13.79-14.77,29.95-14.77,46.92s5.1,33.12,14.77,46.92c-9.45-2.85-17.95-8.59-24.16-16.35-7-8.76-10.71-19.33-10.71-30.56s3.7-21.81,10.71-30.56c6.21-7.77,14.71-13.5,24.16-16.35M363,332.76c-21.99,5.25-38.34,25.02-38.34,48.62s16.35,43.36,38.34,48.62c-10.19-13.54-16.24-30.37-16.24-48.62s6.05-35.08,16.24-48.62h0Z"/>
        </g>
      </g>
    </g>
    <use width="424.66" height="102.16" transform="translate(0 164.96)" xlink:href="#_新規シンボル_4"/>
    <use width="183.67" height="101.81" transform="translate(241.81)" xlink:href="#_新規シンボル"/>
  </g>
</svg>